<?xml version="1.0" encoding="utf-8"?>
<svg viewBox="0 0 500 500" xmlns="http://www.w3.org/2000/svg">
  <defs>
    <clipPath id="a">
      <rect class="a" width="45.134" height="13.184" style="fill: none;"/>
    </clipPath>
  </defs>
  <g transform="matrix(0.872353, 0, 0, 0.956172, -864.591553, -93.977791)" style="">
    <rect class="b" width="554.993" height="402.759" style="fill: rgb(255, 255, 255); stroke: rgb(7, 0, 134); stroke-miterlimit: 10; stroke-width: 0.961px;" rx="8.573" ry="8.573" x="1000.181" y="175.055"/>
    <g transform="matrix(1, 0, 0, 1, 1532.141113, 186.531372)">
      <ellipse class="c" cx="5.434" cy="0.784" rx="5.548" ry="5.548" style="fill: rgb(84, 11, 111);"/>
    </g>
    <g transform="matrix(1, 0, 0, 1, 1509.244141, 182.523239)">
      <ellipse class="c" cx="5.548" cy="5.548" rx="5.548" ry="5.548" transform="translate(0)" style="fill: rgb(84, 11, 111);"/>
    </g>
    <g transform="matrix(1, 0, 0, 1, 1487.204468, 182.596664)">
      <ellipse class="c" cx="5.548" cy="5.548" rx="5.548" ry="5.548" style="fill: rgb(84, 11, 111);"/>
    </g>
    <rect class="d" width="543.866" height="346.948" rx="4.806" style="fill: none; stroke: rgb(230, 230, 230); stroke-miterlimit: 10;" x="1005.388" y="209.286"/>
    <g transform="translate(1006.723 187.178)">
      <g transform="translate(0 0)">
        <g class="e" style="clip-path: url(#a);">
          <g transform="translate(0 0)">
            <g class="e" style="clip-path: url(#a);"/>
          </g>
        </g>
      </g>
    </g>
    <path class="h" d="M790.928,250.31H731V251.4h59.93a11.125,11.125,0,1,1,0,22.251H700.245a11.125,11.125,0,0,1,0-22.251h3.388V250.31h-3.388a12.22,12.22,0,1,0,0,24.439h90.684a12.22,12.22,0,1,0,0-24.439Z" transform="translate(410.719 52.945)" style="fill: rgb(230, 230, 230);"/>
    <path class="c" d="M790.928,287.155H731v1.095h59.93a11.125,11.125,0,1,1,0,22.251H700.244a11.125,11.125,0,0,1,0-22.251h3.388v-1.095h-3.388a12.22,12.22,0,0,0,0,24.44h90.684a12.22,12.22,0,0,0,0-24.44Z" transform="translate(410.72 53.865)" style="fill: rgb(84, 11, 111);"/>
    <path class="h" d="M790.928,324H731v1.095h59.93a11.125,11.125,0,1,1,0,22.251H700.245a11.125,11.125,0,0,1,0-22.251h3.388V324h-3.388a12.22,12.22,0,0,0,0,24.44h90.684a12.22,12.22,0,0,0,0-24.44Z" transform="translate(410.719 54.784)" style="fill: rgb(230, 230, 230);"/>
    <path class="i" d="M709.931,247.489a3.255,3.255,0,0,0,0,6.508h14.277a3.255,3.255,0,0,0,.108-6.508q-.054,0-.108,0Z" transform="translate(411.186 52.875)" style="fill: rgb(217, 200, 227);"/>
    <path class="c" d="M709.931,284.868a3.255,3.255,0,0,0,0,6.508h14.277a3.255,3.255,0,1,0,.108-6.508q-.054,0-.108,0Z" transform="translate(411.186 53.807)" style="fill: rgb(84, 11, 111);"/>
    <path class="i" d="M709.931,321.179a3.255,3.255,0,0,0,0,6.508h14.277a3.255,3.255,0,1,0,.108-6.508q-.054,0-.108,0Z" transform="translate(411.186 54.714)" style="fill: rgb(217, 200, 227);"/>
    <path class="h" d="M704.406,259.057a3.255,3.255,0,0,0,0,6.508H786a3.255,3.255,0,1,0,.107-6.508h-81.7Z" transform="translate(411.048 53.163)" style="fill: rgb(230, 230, 230);"/>
    <path class="h" d="M790.928,215.6H731V216.7h59.93a11.125,11.125,0,1,1,0,22.25H700.244a11.125,11.125,0,0,1,0-22.25h3.388V215.6h-3.388a12.22,12.22,0,0,0,0,24.439h90.684a12.22,12.22,0,0,0,0-24.439Z" transform="translate(410.72 52.079)" style="fill: rgb(230, 230, 230);"/>
    <path class="i" d="M709.931,212.78a3.255,3.255,0,0,0,0,6.508h14.277a3.255,3.255,0,1,0,.108-6.508h0q-.054,0-.108,0Z" transform="translate(411.186 52.008)" style="fill: rgb(217, 200, 227);"/>
    <path class="h" d="M704.406,224.348a3.255,3.255,0,0,0,0,6.508H786a3.255,3.255,0,1,0,.115-6.508H704.406Z" transform="translate(411.048 52.297)" style="fill: rgb(230, 230, 230);"/>
    <path class="c" d="M704.406,295.9a3.255,3.255,0,0,0,0,6.509H786a3.255,3.255,0,0,0,.107-6.509h-81.7Z" transform="translate(411.048 54.083)" style="fill: rgb(84, 11, 111);"/>
    <path class="h" d="M704.406,332.747a3.255,3.255,0,0,0,0,6.509H786a3.255,3.255,0,0,0,.107-6.509h-81.7Z" transform="translate(411.048 55.002)" style="fill: rgb(230, 230, 230);"/>
    <path class="c" d="M824.371,299.5l-12.315-7.11v14.219l12.315-7.11-12.315-7.11v14.219Z" transform="translate(413.814 53.995)" style="fill: rgb(84, 11, 111);"/>
    <path class="h" d="M 1218.076 420.523 L 1025.64 420.523 C 1024.28 420.521 1023.179 419.419 1023.178 418.06 L 1023.178 228.689 C 1023.179 227.33 1024.28 226.228 1025.64 226.226 L 1225.408 226.226 C 1226.767 226.228 1227.868 227.33 1227.871 228.689 L 1227.871 340.809 L 1229.513 340.809 L 1229.513 228.689 C 1229.507 226.425 1227.671 224.592 1225.408 224.589 L 1025.64 224.589 C 1023.377 224.594 1021.545 226.427 1021.54 228.689 L 1021.54 418.057 C 1021.545 420.319 1023.377 422.151 1025.64 422.157 L 1218.076 422.157 Z" style="fill: rgb(230, 230, 230);"/>
    <path class="c" d="M1011.041,294.652h-172.5c-2.239,0-4.056,1.418-4.056,3.165v37.336H1015.1V297.817C1015.1,296.07,1013.279,294.652,1011.041,294.652Z" transform="translate(414.374 54.052)" style="fill: rgb(84, 11, 111);"/>
    <path class="h" d="M1012.113,293.584H837.52a4.108,4.108,0,0,0-4.1,4.1V437.254a4.107,4.107,0,0,0,4.1,4.1h174.593a4.106,4.106,0,0,0,4.1-4.1V297.689A4.107,4.107,0,0,0,1012.113,293.584Zm2.463,143.67a2.467,2.467,0,0,1-2.463,2.463H837.52a2.467,2.467,0,0,1-2.463-2.463V297.689a2.467,2.467,0,0,1,2.463-2.463h174.593a2.467,2.467,0,0,1,2.463,2.463Z" transform="translate(414.348 54.025)" style="fill: rgb(230, 230, 230);"/>
    <path class="h" d="M854.524,378.341a3.255,3.255,0,0,0,0,6.509h81.6a3.255,3.255,0,0,0,.107-6.509h0c-.036,0-.072,0-.107,0Z" transform="translate(414.794 56.14)" style="fill: rgb(230, 230, 230);"/>
    <path class="h" d="M854.524,390.423a3.255,3.255,0,0,0,0,6.508h81.6a3.255,3.255,0,1,0,.107-6.508h-81.7Z" transform="translate(414.794 56.442)" style="fill: rgb(230, 230, 230);"/>
    <path class="h" d="M854.524,402.506a3.255,3.255,0,0,0,0,6.508H982.213a3.255,3.255,0,1,0,.107-6.508h0c-.035,0-.071,0-.107,0Z" transform="translate(414.794 56.743)" style="fill: rgb(230, 230, 230);"/>
    <path class="h" d="M854.524,414.588a3.255,3.255,0,0,0,0,6.508H968.658a3.255,3.255,0,1,0,.108-6.508h0q-.054,0-.108,0Z" transform="translate(414.794 57.045)" style="fill: rgb(230, 230, 230);"/>
    <ellipse class="j" cx="11.774" cy="11.774" rx="11.774" ry="11.774" transform="translate(1261.121 357.181)" style="fill: rgb(255, 255, 255);"/>
    <path class="j" d="M878.607,305.342a2.917,2.917,0,0,0,0,5.834h73.138a2.917,2.917,0,0,0,.1-5.834h0q-.048,0-.1,0Z" transform="translate(415.404 54.318)" style="fill: rgb(255, 255, 255);"/>
    <path class="j" d="M878.607,317.786a2.917,2.917,0,0,0,0,5.834H998.839a2.917,2.917,0,0,0,.1-5.834H878.607Z" transform="translate(415.404 54.629)" style="fill: rgb(255, 255, 255);"/>
    <g transform="matrix(1, 0, 0, 1, 1354.614136, 197.099884)">
      <ellipse class="h" cx="116.41" cy="6.008" rx="116.41" ry="6.008" transform="translate(0 405.066)" style="fill: rgb(230, 230, 230);"/>
      <path class="k" d="M1141.575,216.7l-33.046,3.755c.451-10.151-.407-19.619-3.755-27.789l27.037-9.764C1129.388,193.01,1133.938,204.54,1141.575,216.7Z" transform="translate(-972.106 -143.098)" style="fill: rgb(160, 97, 106);"/>
      <path class="k" d="M1145.191,328.647l10.7,19.108a9.928,9.928,0,0,1-3.81,13.514h0l-.128.071h0a9.928,9.928,0,0,1-14.608-7.791l-1.741-18.261-5.929-69.7-10.115-45.847,21-5.962,9.776,51.556Z" transform="translate(-971.737 -142.327)" style="fill: rgb(160, 97, 106);"/>
      <path class="l" d="M1164.872,530.414l-13.518-.751-30.042-133.683-63.837,134.434-13.519-.751,39.054-207.284.751-37.551,48.817-3c18.245,20.065,28.578,40.816,30.041,62.336Z" transform="translate(-973.623 -140.629)" style="fill: rgb(47, 46, 65);"/>
      <path class="l" d="M1160.916,547.982c-2.559,1.168-5.019-8.574-6.861-6.172-7.126,9.286-21,6.081-20.521,4.6a3.774,3.774,0,0,1-2.438-4.749c.019-.057.038-.114.06-.17h0a3.773,3.773,0,0,1,2.618-2.336l6.421-1.605,10.081-17.731,10.988-1.39.278.454a28.33,28.33,0,0,1,3.036,23.164C1163.663,544.978,1162.419,547.3,1160.916,547.982Z" transform="translate(-971.454 -134.725)" style="fill: rgb(47, 46, 65);"/>
      <ellipse class="k" cx="23.282" cy="23.282" rx="23.282" ry="23.282" transform="translate(116.146 9.763)" style="fill: rgb(160, 97, 106);"/>
      <path class="h" d="M1133.261,287.535l-50.319,3L1078.435,262c-4.665-12.828,1.165-24.614,10.515-36.05l19.526-21.779,27.037-.751h0a20.194,20.194,0,0,1,13.74,16.709,79.932,79.932,0,0,1-8.36,46.433Z" transform="translate(-972.804 -142.586)" style="fill: rgb(230, 230, 230);"/>
      <path class="k" d="M1078.787,350.476l3.6,21.6a9.927,9.927,0,0,1-8.161,11.425h0l-.146.024h0a9.928,9.928,0,0,1-11.105-12.277l4.546-17.772,18.025-67.593,6.008-46.564,21.78,1.5-8.262,51.821Z" transform="translate(-973.156 -141.69)" style="fill: rgb(160, 97, 106);"/>
      <path class="l" d="M1139.849,266.861h-.538c-10.156-8.8-18.981-18.664-11.854-31.015-6.045-15.342-12.783-31.273-12.376-41.129a28.906,28.906,0,0,0-6.566-20.1c-6.423-7.5-7.853-10.854-19.584-8.017h0a22.229,22.229,0,0,1,21.917-22.535h0q.558-.008,1.116.012l7.329.266c5.606.2,23.525,2.5,27.371,6.2a17.85,17.85,0,0,1,5.109,15.008c-.719,6.117,1.212,11.518,6.368,16.048,9.871,10.208,13.942,20.8,8.346,32.032-4.225,11.891-4.023,21.678,6.875,26.382h0C1176.9,253.6,1153.885,266.861,1139.849,266.861Z" transform="translate(-972.501 -144.067)" style="fill: rgb(47, 46, 65);"/>
      <path class="h" d="M1114.977,249.214c-9.323-7.133-18.589-7.7-27.789-.751l2.512-28.519a15.506,15.506,0,0,1,14.766-15.756h0a15.507,15.507,0,0,1,16.227,14.751q.023.5.015,1Z" transform="translate(-972.545 -142.567)" style="fill: rgb(230, 230, 230);"/>
      <ellipse class="k" cx="3.004" cy="5.633" rx="3.004" ry="5.633" transform="translate(136.799 31.919)" style="fill: rgb(160, 97, 106);"/>
      <path class="l" d="M1056.807,547.965c-2.559,1.168-5.019-8.574-6.861-6.172-6.185,8.063-20.585,5.534-20.521,4.6a3.776,3.776,0,0,1-2.438-4.749h0c.018-.057.038-.114.059-.17h0a3.773,3.773,0,0,1,2.619-2.336l6.42-1.605,10.081-17.731,10.293-.695h0a24.593,24.593,0,0,1,4.548,20.977C1060.073,543.9,1058.631,547.132,1056.807,547.965Z" transform="translate(-974.052 -134.708)" style="fill: rgb(47, 46, 65);"/>
    </g>
    <g transform="matrix(1, 0, 0, 1, 1033.305054, 454.218933)">
      <rect class="h" width="165.65" height="52.6" rx="12" transform="translate(3.677)" style="fill: rgb(230, 230, 230);"/>
      <path class="m" d="M796.312,464.293h-90.7a1.449,1.449,0,0,0-1.031.432l-15.545,15.8a1.447,1.447,0,0,1-2.478-1.015V465.739a1.447,1.447,0,0,0-1.447-1.446H658.155a13.787,13.787,0,0,1-13.747-13.747V425.439a13.786,13.786,0,0,1,13.747-13.746H796.312a13.786,13.786,0,0,1,13.747,13.746v25.107A13.787,13.787,0,0,1,796.312,464.293Z" transform="translate(-644.408 -406.306)" style="fill: rgb(255, 255, 255); stroke: rgb(84, 11, 111); stroke-miterlimit: 10;"/>
      <path class="c" d="M668.642,425.429l2.665,8.2a.069.069,0,0,0,.066.048H680a.069.069,0,0,1,.041.125l-6.977,5.069a.07.07,0,0,0-.026.078l2.665,8.2a.069.069,0,0,1-.107.078l-6.977-5.069a.071.071,0,0,0-.082,0l-6.977,5.069a.07.07,0,0,1-.107-.078l2.665-8.2a.07.07,0,0,0-.026-.078l-6.977-5.069a.069.069,0,0,1,.041-.125h8.624a.069.069,0,0,0,.067-.048l2.665-8.2A.069.069,0,0,1,668.642,425.429Z" transform="translate(-644.091 -405.964)" style="fill: rgb(84, 11, 111);"/>
      <path class="c" d="M697.858,425.429l2.665,8.2a.07.07,0,0,0,.067.048h8.623a.069.069,0,0,1,.041.125l-6.977,5.069a.07.07,0,0,0-.025.078l2.665,8.2a.07.07,0,0,1-.108.078l-6.977-5.069a.069.069,0,0,0-.081,0l-6.977,5.069a.07.07,0,0,1-.108-.078l2.665-8.2a.071.071,0,0,0-.025-.078l-6.977-5.069a.069.069,0,0,1,.041-.125h8.623a.07.07,0,0,0,.067-.048l2.665-8.2A.069.069,0,0,1,697.858,425.429Z" transform="translate(-643.362 -405.964)" style="fill: rgb(84, 11, 111);"/>
      <path class="c" d="M727.074,425.429l2.665,8.2a.069.069,0,0,0,.067.048h8.624a.069.069,0,0,1,.041.125l-6.977,5.069a.07.07,0,0,0-.026.078l2.665,8.2a.07.07,0,0,1-.107.078l-6.977-5.069a.071.071,0,0,0-.082,0l-6.977,5.069a.069.069,0,0,1-.107-.078l2.665-8.2a.069.069,0,0,0-.026-.078l-6.977-5.069a.069.069,0,0,1,.041-.125h8.624a.069.069,0,0,0,.066-.048l2.665-8.2A.069.069,0,0,1,727.074,425.429Z" transform="translate(-642.633 -405.964)" style="fill: rgb(84, 11, 111);"/>
      <path class="i" d="M756.291,425.429l2.665,8.2a.069.069,0,0,0,.066.048h8.624a.069.069,0,0,1,.041.125l-6.977,5.069a.069.069,0,0,0-.026.078l2.665,8.2a.069.069,0,0,1-.107.078l-6.977-5.069a.071.071,0,0,0-.082,0l-6.977,5.069a.07.07,0,0,1-.107-.078l2.665-8.2a.07.07,0,0,0-.026-.078l-6.977-5.069a.069.069,0,0,1,.041-.125h8.624a.07.07,0,0,0,.067-.048l2.665-8.2A.069.069,0,0,1,756.291,425.429Z" transform="translate(-641.904 -405.964)" style="fill: rgb(217, 200, 227);"/>
      <path class="i" d="M785.507,425.429l2.665,8.2a.069.069,0,0,0,.067.048h8.623a.069.069,0,0,1,.041.125l-6.977,5.069a.07.07,0,0,0-.025.078l2.665,8.2a.07.07,0,0,1-.108.078l-6.977-5.069a.069.069,0,0,0-.081,0l-6.977,5.069a.07.07,0,0,1-.108-.078l2.665-8.2a.071.071,0,0,0-.025-.078L773.98,433.8a.069.069,0,0,1,.041-.125h8.623a.069.069,0,0,0,.067-.048l2.665-8.2A.069.069,0,0,1,785.507,425.429Z" transform="translate(-641.175 -405.964)" style="fill: rgb(217, 200, 227);"/>
    </g>
    <g transform="matrix(1, 0, 0, 1, 1286.827637, 243.201233)">
      <rect class="h" width="165.65" height="52.6" rx="12" transform="translate(0 20.796)" style="fill: rgb(230, 230, 230);"/>
      <path class="m" d="M911.869,211.565h90.7a1.448,1.448,0,0,0,1.032-.433l15.546-15.8a1.447,1.447,0,0,1,2.478,1.015v13.773a1.447,1.447,0,0,0,1.446,1.447h26.952a13.786,13.786,0,0,1,13.746,13.746v25.107a13.787,13.787,0,0,1-13.746,13.747H911.869a13.787,13.787,0,0,1-13.746-13.747V225.311A13.786,13.786,0,0,1,911.869,211.565Z" transform="translate(-893.974 -194.894)" style="fill: rgb(255, 255, 255); stroke: rgb(84, 11, 111); stroke-miterlimit: 10;"/>
      <path class="c" d="M916.745,226.119l2.665,8.2a.069.069,0,0,0,.067.048H928.1a.07.07,0,0,1,.041.126l-6.977,5.068a.07.07,0,0,0-.026.078l2.665,8.2a.069.069,0,0,1-.107.078l-6.977-5.068a.068.068,0,0,0-.082,0l-6.977,5.068a.069.069,0,0,1-.107-.078l2.665-8.2a.07.07,0,0,0-.026-.078l-6.977-5.068a.07.07,0,0,1,.041-.126h8.624a.069.069,0,0,0,.065-.048l2.665-8.2A.07.07,0,0,1,916.745,226.119Z" transform="translate(-893.797 -194.116)" style="fill: rgb(84, 11, 111);"/>
      <path class="c" d="M945.962,226.119l2.665,8.2a.069.069,0,0,0,.066.048h8.624a.07.07,0,0,1,.041.126l-6.977,5.068a.07.07,0,0,0-.026.078l2.665,8.2a.069.069,0,0,1-.107.078l-6.977-5.068a.068.068,0,0,0-.082,0l-6.977,5.068a.069.069,0,0,1-.107-.078l2.665-8.2a.07.07,0,0,0-.026-.078l-6.977-5.068a.07.07,0,0,1,.041-.126H943.1a.07.07,0,0,0,.067-.048l2.665-8.2A.07.07,0,0,1,945.962,226.119Z" transform="translate(-893.068 -194.116)" style="fill: rgb(84, 11, 111);"/>
      <path class="c" d="M975.178,226.119l2.665,8.2a.069.069,0,0,0,.067.048h8.623a.07.07,0,0,1,.041.126l-6.977,5.068a.071.071,0,0,0-.025.078l2.665,8.2a.07.07,0,0,1-.108.078l-6.977-5.068a.066.066,0,0,0-.081,0l-6.977,5.068a.07.07,0,0,1-.108-.078l2.665-8.2a.071.071,0,0,0-.025-.078l-6.977-5.068a.07.07,0,0,1,.041-.126h8.623a.07.07,0,0,0,.067-.048l2.665-8.2A.07.07,0,0,1,975.178,226.119Z" transform="translate(-892.339 -194.116)" style="fill: rgb(84, 11, 111);"/>
      <path class="c" d="M1004.394,226.119l2.665,8.2a.069.069,0,0,0,.067.048h8.624a.07.07,0,0,1,.041.126l-6.977,5.068a.07.07,0,0,0-.026.078l2.665,8.2a.069.069,0,0,1-.107.078l-6.977-5.068a.068.068,0,0,0-.082,0l-6.977,5.068a.069.069,0,0,1-.107-.078l2.665-8.2a.07.07,0,0,0-.026-.078l-6.977-5.068a.07.07,0,0,1,.041-.126h8.624a.069.069,0,0,0,.065-.048l2.665-8.2A.07.07,0,0,1,1004.394,226.119Z" transform="translate(-891.61 -194.116)" style="fill: rgb(84, 11, 111);"/>
      <path class="i" d="M1033.611,226.119l2.665,8.2a.069.069,0,0,0,.065.048h8.624a.07.07,0,0,1,.041.126l-6.977,5.068a.07.07,0,0,0-.026.078l2.665,8.2a.069.069,0,0,1-.107.078l-6.977-5.068a.068.068,0,0,0-.082,0l-6.977,5.068a.069.069,0,0,1-.107-.078l2.665-8.2a.07.07,0,0,0-.026-.078l-6.977-5.068a.07.07,0,0,1,.041-.126h8.624a.069.069,0,0,0,.067-.048l2.665-8.2A.07.07,0,0,1,1033.611,226.119Z" transform="translate(-890.881 -194.116)" style="fill: rgb(217, 200, 227);"/>
    </g>
    <g transform="translate(1274.742 397.519)">
      <path class="c" d="M870.4,342.323l2.459,7.567a.063.063,0,0,0,.061.044h7.956a.064.064,0,0,1,.038.116l-6.437,4.677a.065.065,0,0,0-.024.072l2.459,7.566a.064.064,0,0,1-.1.072l-6.437-4.676a.065.065,0,0,0-.076,0l-6.437,4.676a.064.064,0,0,1-.1-.072l2.459-7.566a.065.065,0,0,0-.024-.072l-6.437-4.677a.064.064,0,0,1,.038-.116h7.956a.065.065,0,0,0,.062-.044l2.458-7.567A.064.064,0,0,1,870.4,342.323Z" transform="translate(-859.738 -342.279)" style="fill: rgb(84, 11, 111);"/>
      <path class="c" d="M897.355,342.323l2.458,7.567a.065.065,0,0,0,.062.044h7.956a.064.064,0,0,1,.038.116l-6.437,4.677a.065.065,0,0,0-.024.072l2.459,7.566a.064.064,0,0,1-.1.072l-6.437-4.676a.065.065,0,0,0-.076,0l-6.437,4.676a.064.064,0,0,1-.1-.072l2.459-7.566a.065.065,0,0,0-.024-.072l-6.437-4.677a.064.064,0,0,1,.038-.116h7.956a.065.065,0,0,0,.061-.044l2.459-7.567A.064.064,0,0,1,897.355,342.323Z" transform="translate(-859.065 -342.279)" style="fill: rgb(84, 11, 111);"/>
      <path class="c" d="M924.309,342.323l2.458,7.567a.065.065,0,0,0,.061.044h7.956a.064.064,0,0,1,.038.116l-6.437,4.677a.065.065,0,0,0-.024.072l2.459,7.566a.064.064,0,0,1-.1.072l-6.437-4.676a.065.065,0,0,0-.076,0l-6.436,4.676a.064.064,0,0,1-.1-.072l2.459-7.566a.065.065,0,0,0-.023-.072l-6.437-4.677a.064.064,0,0,1,.038-.116h7.957a.063.063,0,0,0,.06-.044l2.459-7.567A.064.064,0,0,1,924.309,342.323Z" transform="translate(-858.393 -342.279)" style="fill: rgb(84, 11, 111);"/>
      <path class="c" d="M951.263,342.323l2.459,7.567a.063.063,0,0,0,.06.044h7.957a.064.064,0,0,1,.037.116l-6.437,4.677a.063.063,0,0,0-.022.072l2.458,7.566a.064.064,0,0,1-.1.072l-6.437-4.676a.063.063,0,0,0-.075,0l-6.437,4.676a.065.065,0,0,1-.1-.072l2.459-7.566a.063.063,0,0,0-.024-.072l-6.436-4.677a.064.064,0,0,1,.037-.116h7.957a.063.063,0,0,0,.06-.044l2.459-7.567A.064.064,0,0,1,951.263,342.323Z" transform="translate(-857.72 -342.279)" style="fill: rgb(84, 11, 111);"/>
      <path class="i" d="M978.217,342.323l2.459,7.567a.063.063,0,0,0,.06.044h7.957a.064.064,0,0,1,.038.116l-6.437,4.677a.065.065,0,0,0-.023.072l2.459,7.566a.065.065,0,0,1-.1.072l-6.437-4.676a.063.063,0,0,0-.075,0l-6.437,4.676a.064.064,0,0,1-.1-.072l2.458-7.566a.063.063,0,0,0-.023-.072l-6.437-4.677a.064.064,0,0,1,.037-.116h7.957a.063.063,0,0,0,.061-.044l2.459-7.567A.064.064,0,0,1,978.217,342.323Z" transform="translate(-857.047 -342.279)" style="fill: rgb(217, 200, 227);"/>
    </g>
    <g transform="translate(1402.783 471.25)">
      <ellipse class="n" cx="22.376" cy="22.376" rx="22.376" ry="22.376" style="fill: rgb(84, 11, 111); stroke: rgb(255, 255, 255); stroke-miterlimit: 10; stroke-width: 3px;"/>
    </g>
    <g transform="translate(1414.241 485.69)">
      <path class="o" d="M995.84,435.049H1011a4.382,4.382,0,0,1,4.382,4.3l.135,7.186" transform="translate(-995.84 -428.135)" style="fill: none; stroke: rgb(255, 255, 255); stroke-linecap: round; stroke-miterlimit: 10; stroke-width: 4px;"/>
      <g transform="translate(0)">
        <line class="o" y1="6.563" x2="7.647" style="fill: none; stroke: rgb(255, 255, 255); stroke-linecap: round; stroke-miterlimit: 10; stroke-width: 4px;"/>
        <line class="o" x1="7.647" y1="6.563" transform="translate(0 6.914)" style="fill: none; stroke: rgb(255, 255, 255); stroke-linecap: round; stroke-miterlimit: 10; stroke-width: 4px;"/>
      </g>
    </g>
    <g transform="translate(410.991 53.684)">
      <circle class="i" cx="10.827" cy="10.827" r="10.827" transform="translate(657.009 215.316)" style="fill: rgb(217, 200, 227);"/>
      <path class="j" d="M662.351,224.985a14.833,14.833,0,0,0,1.093,5.084c.348.784.9,2.015,1.982,1.717.824-.227,1.214-1.409,1.6-2.087a22.655,22.655,0,0,1,5.757-7.225,1.114,1.114,0,0,0,.388-1.478,1.088,1.088,0,0,0-1.479-.388,19.952,19.952,0,0,0-4.29,4.454c-.58.8-1.115,1.64-1.625,2.49s-.939,1.778-1.493,2.6l.387-.388-.08.047.833-.109-.105-.036.477.278a4.274,4.274,0,0,1-.5-.991,9.441,9.441,0,0,1-.417-1.326,15.363,15.363,0,0,1-.373-2.641,1.105,1.105,0,0,0-1.08-1.081,1.089,1.089,0,0,0-1.081,1.081Z" style="fill: rgb(255, 255, 255);"/>
      <circle class="i" cx="10.827" cy="10.827" r="10.827" transform="translate(657.009 252.501)" style="fill: rgb(217, 200, 227);"/>
      <path class="j" d="M662.351,262.17a14.843,14.843,0,0,0,1.093,5.084c.348.784.9,2.014,1.982,1.716.824-.227,1.214-1.408,1.6-2.086a22.634,22.634,0,0,1,5.757-7.225,1.115,1.115,0,0,0,.388-1.479,1.089,1.089,0,0,0-1.479-.387,19.931,19.931,0,0,0-4.29,4.454c-.58.8-1.115,1.64-1.625,2.49s-.939,1.777-1.493,2.6l.387-.388-.08.047.833-.109-.105-.036.477.278a4.274,4.274,0,0,1-.5-.991,9.482,9.482,0,0,1-.417-1.326,15.363,15.363,0,0,1-.373-2.641,1.105,1.105,0,0,0-1.08-1.081,1.089,1.089,0,0,0-1.081,1.081Z" style="fill: rgb(255, 255, 255);"/>
      <circle class="c" cx="10.827" cy="10.827" r="10.827" transform="translate(657.009 288.498)" style="fill: rgb(84, 11, 111);"/>
      <path class="j" d="M668.558,291.9q-.994,3.67-1.629,7.423a1.113,1.113,0,0,0,.754,1.33,1.09,1.09,0,0,0,1.33-.755q.634-3.75,1.63-7.424a1.081,1.081,0,0,0-2.085-.574Z" style="fill: rgb(255, 255, 255);"/>
      <path class="j" d="M667.294,305.258a1.081,1.081,0,0,0,0-2.161,1.081,1.081,0,0,0,0,2.161Z" style="fill: rgb(255, 255, 255);"/>
      <circle class="c" cx="10.827" cy="10.827" r="10.827" transform="translate(657.009 324.495)" style="fill: rgb(84, 11, 111);"/>
      <path class="j" d="M668.558,327.9q-.994,3.67-1.629,7.424a1.112,1.112,0,0,0,.754,1.329,1.09,1.09,0,0,0,1.33-.755q.634-3.749,1.63-7.423a1.081,1.081,0,1,0-2.085-.575Z" style="fill: rgb(255, 255, 255);"/>
      <path class="j" d="M667.294,341.256a1.082,1.082,0,0,0,0-2.162,1.082,1.082,0,0,0,0,2.162Z" style="fill: rgb(255, 255, 255);"/>
    </g>
  </g>
</svg>